<svg version="1.1" viewBox="0.0 0.0 658.9081364829397 305.4540682414698" fill="none" stroke="none" stroke-linecap="square" stroke-miterlimit="10" xmlns:xlink="http://www.w3.org/1999/xlink" xmlns="http://www.w3.org/2000/svg"><clipPath id="p.0"><path d="m0 0l658.90814 0l0 305.45407l-658.90814 0l0 -305.45407z" clip-rule="nonzero"/></clipPath><g clip-path="url(#p.0)"><path fill="#000000" fill-opacity="0.0" d="m0 0l658.90814 0l0 305.45407l-658.90814 0z" fill-rule="evenodd"/><path shape-rendering="crispEdges" fill="#0000ff" d="m36.0 164.0l40.797897 0l0 41.196854l-40.797897 0l0 -41.196854z" fill-rule="nonzero"/><path shape-rendering="crispEdges" fill="#0000ff" d="m76.7979 164.0l40.797905 0l0 41.196854l-40.797905 0l0 -41.196854z" fill-rule="nonzero"/><path shape-rendering="crispEdges" fill="#ff0000" d="m117.5958 164.0l40.797905 0l0 41.196854l-40.797905 0l0 -41.196854z" fill-rule="nonzero"/><path shape-rendering="crispEdges" fill="#0000ff" d="m158.3937 164.0l40.797897 0l0 41.196854l-40.797897 0l0 -41.196854z" fill-rule="nonzero"/><path shape-rendering="crispEdges" fill="#ff0000" d="m199.1916 164.0l40.797897 0l0 41.196854l-40.797897 0l0 -41.196854z" fill-rule="nonzero"/><path shape-rendering="crispEdges" fill="#0000ff" d="m239.9895 164.0l40.797913 0l0 41.196854l-40.797913 0l0 -41.196854z" fill-rule="nonzero"/><path shape-rendering="crispEdges" fill="#0000ff" d="m280.7874 164.0l40.797882 0l0 41.196854l-40.797882 0l0 -41.196854z" fill-rule="nonzero"/><path shape-rendering="crispEdges" fill="#0000ff" d="m321.5853 164.0l40.797913 0l0 41.196854l-40.797913 0l0 -41.196854z" fill-rule="nonzero"/><path shape-rendering="crispEdges" fill="#ff0000" d="m362.3832 164.0l40.797882 0l0 41.196854l-40.797882 0l0 -41.196854z" fill-rule="nonzero"/><path shape-rendering="crispEdges" fill="#0000ff" d="m403.1811 164.0l40.797913 0l0 41.196854l-40.797913 0l0 -41.196854z" fill-rule="nonzero"/><path stroke="#9e9e9e" stroke-width="1.0" stroke-linecap="butt" d="m36.0 163.50131l0 42.19423" fill-rule="nonzero"/><path stroke="#9e9e9e" stroke-width="1.0" stroke-linecap="butt" d="m76.7979 163.50131l0 42.19423" fill-rule="nonzero"/><path stroke="#9e9e9e" stroke-width="1.0" stroke-linecap="butt" d="m117.5958 163.50131l0 42.19423" fill-rule="nonzero"/><path stroke="#9e9e9e" stroke-width="1.0" stroke-linecap="butt" d="m158.3937 163.50131l0 42.19423" fill-rule="nonzero"/><path stroke="#9e9e9e" stroke-width="1.0" stroke-linecap="butt" d="m199.1916 163.50131l0 42.19423" fill-rule="nonzero"/><path stroke="#9e9e9e" stroke-width="1.0" stroke-linecap="butt" d="m239.9895 163.50131l0 42.19423" fill-rule="nonzero"/><path stroke="#9e9e9e" stroke-width="1.0" stroke-linecap="butt" d="m280.7874 163.50131l0 42.19423" fill-rule="nonzero"/><path stroke="#9e9e9e" stroke-width="1.0" stroke-linecap="butt" d="m321.5853 163.50131l0 42.19423" fill-rule="nonzero"/><path stroke="#9e9e9e" stroke-width="1.0" stroke-linecap="butt" d="m362.3832 163.50131l0 42.19423" fill-rule="nonzero"/><path stroke="#9e9e9e" stroke-width="1.0" stroke-linecap="butt" d="m403.1811 163.50131l0 42.19423" fill-rule="nonzero"/><path stroke="#9e9e9e" stroke-width="1.0" stroke-linecap="butt" d="m443.979 163.50131l0 42.19423" fill-rule="nonzero"/><path stroke="#9e9e9e" stroke-width="1.0" stroke-linecap="butt" d="m35.501312 164.0l408.97638 0" fill-rule="nonzero"/><path stroke="#9e9e9e" stroke-width="1.0" stroke-linecap="butt" d="m35.501312 205.19685l408.97638 0" fill-rule="nonzero"/><path shape-rendering="crispEdges" fill="#0000ff" d="m36.0 228.0l40.797897 0l0 41.19684l-40.797897 0l0 -41.19684z" fill-rule="nonzero"/><path shape-rendering="crispEdges" fill="#0000ff" d="m76.7979 228.0l40.797905 0l0 41.19684l-40.797905 0l0 -41.19684z" fill-rule="nonzero"/><path shape-rendering="crispEdges" fill="#0000ff" d="m117.5958 228.0l40.797905 0l0 41.19684l-40.797905 0l0 -41.19684z" fill-rule="nonzero"/><path shape-rendering="crispEdges" fill="#ff0000" d="m158.3937 228.0l40.797897 0l0 41.19684l-40.797897 0l0 -41.19684z" fill-rule="nonzero"/><path shape-rendering="crispEdges" fill="#0000ff" d="m199.1916 228.0l40.797897 0l0 41.19684l-40.797897 0l0 -41.19684z" fill-rule="nonzero"/><path shape-rendering="crispEdges" fill="#ff0000" d="m239.9895 228.0l40.797913 0l0 41.19684l-40.797913 0l0 -41.19684z" fill-rule="nonzero"/><path shape-rendering="crispEdges" fill="#0000ff" d="m280.7874 228.0l40.797882 0l0 41.19684l-40.797882 0l0 -41.19684z" fill-rule="nonzero"/><path shape-rendering="crispEdges" fill="#0000ff" d="m321.5853 228.0l40.797913 0l0 41.19684l-40.797913 0l0 -41.19684z" fill-rule="nonzero"/><path shape-rendering="crispEdges" fill="#0000ff" d="m362.3832 228.0l40.797882 0l0 41.19684l-40.797882 0l0 -41.19684z" fill-rule="nonzero"/><path shape-rendering="crispEdges" fill="#ff0000" d="m403.1811 228.0l40.797913 0l0 41.19684l-40.797913 0l0 -41.19684z" fill-rule="nonzero"/><path stroke="#9e9e9e" stroke-width="1.0" stroke-linecap="butt" d="m36.0 227.50131l0 42.194214" fill-rule="nonzero"/><path stroke="#9e9e9e" stroke-width="1.0" stroke-linecap="butt" d="m76.7979 227.50131l0 42.194214" fill-rule="nonzero"/><path stroke="#9e9e9e" stroke-width="1.0" stroke-linecap="butt" d="m117.5958 227.50131l0 42.194214" fill-rule="nonzero"/><path stroke="#9e9e9e" stroke-width="1.0" stroke-linecap="butt" d="m158.3937 227.50131l0 42.194214" fill-rule="nonzero"/><path stroke="#9e9e9e" stroke-width="1.0" stroke-linecap="butt" d="m199.1916 227.50131l0 42.194214" fill-rule="nonzero"/><path stroke="#9e9e9e" stroke-width="1.0" stroke-linecap="butt" d="m239.9895 227.50131l0 42.194214" fill-rule="nonzero"/><path stroke="#9e9e9e" stroke-width="1.0" stroke-linecap="butt" d="m280.7874 227.50131l0 42.194214" fill-rule="nonzero"/><path stroke="#9e9e9e" stroke-width="1.0" stroke-linecap="butt" d="m321.5853 227.50131l0 42.194214" fill-rule="nonzero"/><path stroke="#9e9e9e" stroke-width="1.0" stroke-linecap="butt" d="m362.3832 227.50131l0 42.194214" fill-rule="nonzero"/><path stroke="#9e9e9e" stroke-width="1.0" stroke-linecap="butt" d="m403.1811 227.50131l0 42.194214" fill-rule="nonzero"/><path stroke="#9e9e9e" stroke-width="1.0" stroke-linecap="butt" d="m443.979 227.50131l0 42.194214" fill-rule="nonzero"/><path stroke="#9e9e9e" stroke-width="1.0" stroke-linecap="butt" d="m35.501312 228.0l408.97638 0" fill-rule="nonzero"/><path stroke="#9e9e9e" stroke-width="1.0" stroke-linecap="butt" d="m35.501312 269.19684l408.97638 0" fill-rule="nonzero"/><path shape-rendering="crispEdges" fill="#0000ff" d="m36.0 100.0l40.797897 0l0 41.196854l-40.797897 0l0 -41.196854z" fill-rule="nonzero"/><path shape-rendering="crispEdges" fill="#ff0000" d="m76.7979 100.0l40.797905 0l0 41.196854l-40.797905 0l0 -41.196854z" fill-rule="nonzero"/><path shape-rendering="crispEdges" fill="#0000ff" d="m117.5958 100.0l40.797905 0l0 41.196854l-40.797905 0l0 -41.196854z" fill-rule="nonzero"/><path shape-rendering="crispEdges" fill="#0000ff" d="m158.3937 100.0l40.797897 0l0 41.196854l-40.797897 0l0 -41.196854z" fill-rule="nonzero"/><path shape-rendering="crispEdges" fill="#0000ff" d="m199.1916 100.0l40.797897 0l0 41.196854l-40.797897 0l0 -41.196854z" fill-rule="nonzero"/><path shape-rendering="crispEdges" fill="#ff0000" d="m239.9895 100.0l40.797913 0l0 41.196854l-40.797913 0l0 -41.196854z" fill-rule="nonzero"/><path shape-rendering="crispEdges" fill="#ff0000" d="m280.7874 100.0l40.797882 0l0 41.196854l-40.797882 0l0 -41.196854z" fill-rule="nonzero"/><path shape-rendering="crispEdges" fill="#0000ff" d="m321.5853 100.0l40.797913 0l0 41.196854l-40.797913 0l0 -41.196854z" fill-rule="nonzero"/><path shape-rendering="crispEdges" fill="#0000ff" d="m362.3832 100.0l40.797882 0l0 41.196854l-40.797882 0l0 -41.196854z" fill-rule="nonzero"/><path shape-rendering="crispEdges" fill="#0000ff" d="m403.1811 100.0l40.797913 0l0 41.196854l-40.797913 0l0 -41.196854z" fill-rule="nonzero"/><path stroke="#9e9e9e" stroke-width="1.0" stroke-linecap="butt" d="m36.0 99.50131l0 42.19423" fill-rule="nonzero"/><path stroke="#9e9e9e" stroke-width="1.0" stroke-linecap="butt" d="m76.7979 99.50131l0 42.19423" fill-rule="nonzero"/><path stroke="#9e9e9e" stroke-width="1.0" stroke-linecap="butt" d="m117.5958 99.50131l0 42.19423" fill-rule="nonzero"/><path stroke="#9e9e9e" stroke-width="1.0" stroke-linecap="butt" d="m158.3937 99.50131l0 42.19423" fill-rule="nonzero"/><path stroke="#9e9e9e" stroke-width="1.0" stroke-linecap="butt" d="m199.1916 99.50131l0 42.19423" fill-rule="nonzero"/><path stroke="#9e9e9e" stroke-width="1.0" stroke-linecap="butt" d="m239.9895 99.50131l0 42.19423" fill-rule="nonzero"/><path stroke="#9e9e9e" stroke-width="1.0" stroke-linecap="butt" d="m280.7874 99.50131l0 42.19423" fill-rule="nonzero"/><path stroke="#9e9e9e" stroke-width="1.0" stroke-linecap="butt" d="m321.5853 99.50131l0 42.19423" fill-rule="nonzero"/><path stroke="#9e9e9e" stroke-width="1.0" stroke-linecap="butt" d="m362.3832 99.50131l0 42.19423" fill-rule="nonzero"/><path stroke="#9e9e9e" stroke-width="1.0" stroke-linecap="butt" d="m403.1811 99.50131l0 42.19423" fill-rule="nonzero"/><path stroke="#9e9e9e" stroke-width="1.0" stroke-linecap="butt" d="m443.979 99.50131l0 42.19423" fill-rule="nonzero"/><path stroke="#9e9e9e" stroke-width="1.0" stroke-linecap="butt" d="m35.501312 100.0l408.97638 0" fill-rule="nonzero"/><path stroke="#9e9e9e" stroke-width="1.0" stroke-linecap="butt" d="m35.501312 141.19685l408.97638 0" fill-rule="nonzero"/><path shape-rendering="crispEdges" fill="#ff0000" d="m36.0 36.0l40.797897 0l0 41.196854l-40.797897 0l0 -41.196854z" fill-rule="nonzero"/><path shape-rendering="crispEdges" fill="#0000ff" d="m76.7979 36.0l40.797905 0l0 41.196854l-40.797905 0l0 -41.196854z" fill-rule="nonzero"/><path shape-rendering="crispEdges" fill="#0000ff" d="m117.5958 36.0l40.797905 0l0 41.196854l-40.797905 0l0 -41.196854z" fill-rule="nonzero"/><path shape-rendering="crispEdges" fill="#0000ff" d="m158.3937 36.0l40.797897 0l0 41.196854l-40.797897 0l0 -41.196854z" fill-rule="nonzero"/><path shape-rendering="crispEdges" fill="#ff0000" d="m199.1916 36.0l40.797897 0l0 41.196854l-40.797897 0l0 -41.196854z" fill-rule="nonzero"/><path shape-rendering="crispEdges" fill="#0000ff" d="m239.9895 36.0l40.797913 0l0 41.196854l-40.797913 0l0 -41.196854z" fill-rule="nonzero"/><path shape-rendering="crispEdges" fill="#0000ff" d="m280.7874 36.0l40.797882 0l0 41.196854l-40.797882 0l0 -41.196854z" fill-rule="nonzero"/><path shape-rendering="crispEdges" fill="#ff0000" d="m321.5853 36.0l40.797913 0l0 41.196854l-40.797913 0l0 -41.196854z" fill-rule="nonzero"/><path shape-rendering="crispEdges" fill="#0000ff" d="m362.3832 36.0l40.797882 0l0 41.196854l-40.797882 0l0 -41.196854z" fill-rule="nonzero"/><path shape-rendering="crispEdges" fill="#0000ff" d="m403.1811 36.0l40.797913 0l0 41.196854l-40.797913 0l0 -41.196854z" fill-rule="nonzero"/><path stroke="#9e9e9e" stroke-width="1.0" stroke-linecap="butt" d="m36.0 35.501312l0 42.19423" fill-rule="nonzero"/><path stroke="#9e9e9e" stroke-width="1.0" stroke-linecap="butt" d="m76.7979 35.501312l0 42.19423" fill-rule="nonzero"/><path stroke="#9e9e9e" stroke-width="1.0" stroke-linecap="butt" d="m117.5958 35.501312l0 42.19423" fill-rule="nonzero"/><path stroke="#9e9e9e" stroke-width="1.0" stroke-linecap="butt" d="m158.3937 35.501312l0 42.19423" fill-rule="nonzero"/><path stroke="#9e9e9e" stroke-width="1.0" stroke-linecap="butt" d="m199.1916 35.501312l0 42.19423" fill-rule="nonzero"/><path stroke="#9e9e9e" stroke-width="1.0" stroke-linecap="butt" d="m239.9895 35.501312l0 42.19423" fill-rule="nonzero"/><path stroke="#9e9e9e" stroke-width="1.0" stroke-linecap="butt" d="m280.7874 35.501312l0 42.19423" fill-rule="nonzero"/><path stroke="#9e9e9e" stroke-width="1.0" stroke-linecap="butt" d="m321.5853 35.501312l0 42.19423" fill-rule="nonzero"/><path stroke="#9e9e9e" stroke-width="1.0" stroke-linecap="butt" d="m362.3832 35.501312l0 42.19423" fill-rule="nonzero"/><path stroke="#9e9e9e" stroke-width="1.0" stroke-linecap="butt" d="m403.1811 35.501312l0 42.19423" fill-rule="nonzero"/><path stroke="#9e9e9e" stroke-width="1.0" stroke-linecap="butt" d="m443.979 35.501312l0 42.19423" fill-rule="nonzero"/><path stroke="#9e9e9e" stroke-width="1.0" stroke-linecap="butt" d="m35.501312 36.0l408.97638 0" fill-rule="nonzero"/><path stroke="#9e9e9e" stroke-width="1.0" stroke-linecap="butt" d="m35.501312 77.19685l408.97638 0" fill-rule="nonzero"/><path shape-rendering="crispEdges" fill="#0000ff" d="m492.0 64.0l40.194214 0l0 41.595802l-40.194214 0l0 -41.595802z" fill-rule="nonzero"/><path shape-rendering="crispEdges" fill="#ff0000" d="m492.0 105.5958l40.194214 0l0 41.595802l-40.194214 0l0 -41.595802z" fill-rule="nonzero"/><path stroke="#9e9e9e" stroke-width="1.0" stroke-linecap="butt" d="m492.0 63.501312l0 84.18898" fill-rule="nonzero"/><path stroke="#9e9e9e" stroke-width="1.0" stroke-linecap="butt" d="m532.1942 63.501312l0 84.18898" fill-rule="nonzero"/><path stroke="#9e9e9e" stroke-width="1.0" stroke-linecap="butt" d="m609.91864 63.501312l0 84.18898" fill-rule="nonzero"/><path stroke="#9e9e9e" stroke-width="1.0" stroke-linecap="butt" d="m491.5013 64.0l118.915985 0" fill-rule="nonzero"/><path stroke="#9e9e9e" stroke-width="1.0" stroke-linecap="butt" d="m491.5013 105.5958l118.915985 0" fill-rule="nonzero"/><path stroke="#9e9e9e" stroke-width="1.0" stroke-linecap="butt" d="m491.5013 147.1916l118.915985 0" fill-rule="nonzero"/><path fill="#000000" d="m556.6237 81.24812l0 2.03125l-1.75 0l0 3.90625q0 1.1875 0.046875 1.390625q0.046875 0.1875 0.21875 0.3125q0.1875 0.125 0.4375 0.125q0.359375 0 1.03125 -0.25l0.21875 2.0q-0.890625 0.375 -2.015625 0.375q-0.703125 0 -1.265625 -0.234375q-0.546875 -0.234375 -0.8125 -0.59375q-0.25 -0.375 -0.34375 -1.0q-0.09375 -0.453125 -0.09375 -1.8125l0 -4.21875l-1.171875 0l0 -2.03125l1.171875 0l0 -1.921875l2.578125 -1.5l0 3.421875l1.75 0zm4.2282715 9.671875l-2.5625 0l0 -9.671875l2.375 0l0 1.375q0.609375 -0.984375 1.09375 -1.28125q0.484375 -0.3125 1.109375 -0.3125q0.875 0 1.6875 0.484375l-0.796875 2.234375q-0.640625 -0.421875 -1.203125 -0.421875q-0.53125 0 -0.90625 0.296875q-0.375 0.296875 -0.59375 1.078125q-0.203125 0.765625 -0.203125 3.234375l0 2.984375zm6.71344 -6.71875l-2.328125 -0.421875q0.40625 -1.40625 1.359375 -2.078125q0.953125 -0.671875 2.84375 -0.671875q1.703125 0 2.546875 0.40625q0.84375 0.40625 1.171875 1.03125q0.34375 0.625 0.34375 2.28125l-0.015625 3.0q0 1.265625 0.109375 1.875q0.125 0.609375 0.46875 1.296875l-2.53125 0q-0.109375 -0.25 -0.25 -0.75q-0.0625 -0.234375 -0.09375 -0.3125q-0.65625 0.640625 -1.40625 0.96875q-0.734375 0.3125 -1.59375 0.3125q-1.484375 0 -2.34375 -0.8125q-0.859375 -0.8125 -0.859375 -2.046875q0 -0.828125 0.390625 -1.46875q0.390625 -0.640625 1.09375 -0.96875q0.703125 -0.34375 2.03125 -0.609375q1.796875 -0.328125 2.484375 -0.625l0 -0.25q0 -0.75 -0.359375 -1.0625q-0.359375 -0.3125 -1.375 -0.3125q-0.6875 0 -1.078125 0.28125q-0.375 0.265625 -0.609375 0.9375zm3.421875 2.078125q-0.484375 0.15625 -1.5625 0.390625q-1.0625 0.21875 -1.390625 0.4375q-0.5 0.359375 -0.5 0.90625q0 0.53125 0.40625 0.9375q0.40625 0.390625 1.015625 0.390625q0.703125 0 1.328125 -0.46875q0.46875 -0.34375 0.609375 -0.84375q0.09375 -0.328125 0.09375 -1.25l0 -0.5zm5.0475464 -6.34375l0 -2.375l2.5625 0l0 2.375l-2.5625 0zm0 10.984375l0 -9.671875l2.5625 0l0 9.671875l-2.5625 0zm13.980225 0l-2.5625 0l0 -4.9375q0 -1.5625 -0.171875 -2.015625q-0.15625 -0.46875 -0.53125 -0.71875q-0.359375 -0.265625 -0.875 -0.265625q-0.671875 0 -1.203125 0.375q-0.53125 0.359375 -0.734375 0.96875q-0.1875 0.59375 -0.1875 2.21875l0 4.375l-2.546875 0l0 -9.671875l2.375 0l0 1.421875q1.265625 -1.640625 3.1875 -1.640625q0.84375 0 1.546875 0.3125q0.703125 0.296875 1.0625 0.78125q0.359375 0.46875 0.5 1.078125q0.140625 0.59375 0.140625 1.703125l0 6.015625z" fill-rule="nonzero"/><path fill="#000000" d="m560.24927 122.843925l0 2.03125l-1.75 0l0 3.9062424q0 1.1875 0.046875 1.390625q0.046875 0.1875 0.21875 0.3125q0.1875 0.125 0.4375 0.125q0.359375 0 1.03125 -0.25l0.21875 2.0q-0.890625 0.375 -2.015625 0.375q-0.703125 0 -1.265625 -0.234375q-0.546875 -0.234375 -0.8125 -0.59375q-0.25 -0.375 -0.34375 -1.0q-0.09375 -0.453125 -0.09375 -1.8125l0 -4.2187424l-1.171875 0l0 -2.03125l1.171875 0l0 -1.921875l2.578125 -1.5l0 3.421875l1.75 0zm7.3689575 6.5937424l2.546875 0.421875q-0.484375 1.40625 -1.546875 2.140625q-1.0625 0.734375 -2.65625 0.734375q-2.515625 0 -3.734375 -1.65625q-0.953125 -1.3125 -0.953125 -3.3281174q0 -2.40625 1.25 -3.765625q1.265625 -1.359375 3.1875 -1.359375q2.15625 0 3.40625 1.421875q1.25 1.421875 1.1875 4.3749924l-6.40625 0q0.03125 1.140625 0.609375 1.78125q0.59375 0.625 1.484375 0.625q0.59375 0 1.0 -0.328125q0.421875 -0.328125 0.625 -1.0625zm0.15625 -2.5937424q-0.03125 -1.109375 -0.578125 -1.6875q-0.546875 -0.578125 -1.328125 -0.578125q-0.84375 0 -1.390625 0.609375q-0.546875 0.609375 -0.53125 1.65625l3.828125 0zm3.7194824 2.9062424l2.5625 -0.390625q0.171875 0.75 0.671875 1.140625q0.5 0.390625 1.40625 0.390625q0.984375 0 1.484375 -0.375q0.34375 -0.25 0.34375 -0.671875q0 -0.296875 -0.1875 -0.484375q-0.1875 -0.1875 -0.859375 -0.34375q-3.09375 -0.6875 -3.921875 -1.2499924q-1.140625 -0.78125 -1.140625 -2.171875q0 -1.265625 0.984375 -2.109375q1.0 -0.859375 3.078125 -0.859375q1.984375 0 2.953125 0.65625q0.96875 0.640625 1.328125 1.90625l-2.40625 0.4375q-0.15625 -0.5625 -0.59375 -0.859375q-0.421875 -0.296875 -1.234375 -0.296875q-1.0 0 -1.4375 0.28125q-0.296875 0.203125 -0.296875 0.515625q0 0.265625 0.25 0.46875q0.34375 0.25 2.390625 0.71875q2.046875 0.453125 2.859375 1.140625q0.796875 0.6718674 0.796875 1.8906174q0 1.34375 -1.109375 2.296875q-1.109375 0.953125 -3.28125 0.953125q-1.984375 0 -3.140625 -0.796875q-1.140625 -0.8125 -1.5 -2.1875zm15.719421 -6.9062424l0 2.03125l-1.75 0l0 3.9062424q0 1.1875 0.046875 1.390625q0.046875 0.1875 0.21875 0.3125q0.1875 0.125 0.4375 0.125q0.359375 0 1.03125 -0.25l0.21875 2.0q-0.890625 0.375 -2.015625 0.375q-0.703125 0 -1.265625 -0.234375q-0.546875 -0.234375 -0.8125 -0.59375q-0.25 -0.375 -0.34375 -1.0q-0.09375 -0.453125 -0.09375 -1.8125l0 -4.2187424l-1.171875 0l0 -2.03125l1.171875 0l0 -1.921875l2.578125 -1.5l0 3.421875l1.75 0z" fill-rule="nonzero"/><path fill="#000000" fill-opacity="0.0" d="m493.02362 191.88977l135.74805 0l0 34.551178l-135.74805 0z" fill-rule="evenodd"/><path fill="#000000" d="m503.46112 218.80977l0 -13.25l2.6875 0l0 11.0l6.703125 0l0 2.25l-9.390625 0zm16.895996 -3.078125l2.546875 0.421875q-0.484375 1.40625 -1.546875 2.140625q-1.0625 0.734375 -2.65625 0.734375q-2.515625 0 -3.734375 -1.65625q-0.953125 -1.3125 -0.953125 -3.328125q0 -2.40625 1.25 -3.765625q1.265625 -1.359375 3.1875 -1.359375q2.15625 0 3.40625 1.421875q1.25 1.421875 1.1875 4.375l-6.40625 0q0.03125 1.140625 0.609375 1.78125q0.59375 0.625 1.484375 0.625q0.59375 0 1.0 -0.328125q0.421875 -0.328125 0.625 -1.0625zm0.15625 -2.59375q-0.03125 -1.109375 -0.578125 -1.6875q-0.546875 -0.578125 -1.328125 -0.578125q-0.84375 0 -1.390625 0.609375q-0.546875 0.609375 -0.53125 1.65625l3.828125 0zm6.5319824 -1.046875l-2.328125 -0.421875q0.40625 -1.40625 1.359375 -2.078125q0.953125 -0.671875 2.84375 -0.671875q1.703125 0 2.546875 0.40625q0.84375 0.40625 1.171875 1.03125q0.34375 0.625 0.34375 2.28125l-0.015625 3.0q0 1.265625 0.109375 1.875q0.125 0.609375 0.46875 1.296875l-2.53125 0q-0.109375 -0.25 -0.25 -0.75q-0.0625 -0.234375 -0.09375 -0.3125q-0.65625 0.640625 -1.40625 0.96875q-0.734375 0.3125 -1.59375 0.3125q-1.484375 0 -2.34375 -0.8125q-0.859375 -0.8125 -0.859375 -2.046875q0 -0.828125 0.390625 -1.46875q0.390625 -0.640625 1.09375 -0.96875q0.703125 -0.34375 2.03125 -0.609375q1.796875 -0.328125 2.484375 -0.625l0 -0.25q0 -0.75 -0.359375 -1.0625q-0.359375 -0.3125 -1.375 -0.3125q-0.6875 0 -1.078125 0.28125q-0.375 0.265625 -0.609375 0.9375zm3.421875 2.078125q-0.484375 0.15625 -1.5625 0.390625q-1.0625 0.21875 -1.390625 0.4375q-0.5 0.359375 -0.5 0.90625q0 0.53125 0.40625 0.9375q0.40625 0.390625 1.015625 0.390625q0.703125 0 1.328125 -0.46875q0.46875 -0.34375 0.609375 -0.84375q0.09375 -0.328125 0.09375 -1.25l0 -0.5zm7.7037964 4.640625l-3.90625 -9.671875l2.6875 0l1.828125 4.9375l0.53125 1.640625q0.203125 -0.625 0.265625 -0.828125q0.125 -0.40625 0.265625 -0.8125l1.84375 -4.9375l2.625 0l-3.84375 9.671875l-2.296875 0zm13.313232 -3.078125l2.546875 0.421875q-0.484375 1.40625 -1.546875 2.140625q-1.0625 0.734375 -2.65625 0.734375q-2.515625 0 -3.734375 -1.65625q-0.953125 -1.3125 -0.953125 -3.328125q0 -2.40625 1.25 -3.765625q1.265625 -1.359375 3.1875 -1.359375q2.15625 0 3.40625 1.421875q1.25 1.421875 1.1875 4.375l-6.40625 0q0.03125 1.140625 0.609375 1.78125q0.59375 0.625 1.484375 0.625q0.59375 0 1.0 -0.328125q0.421875 -0.328125 0.625 -1.0625zm0.15625 -2.59375q-0.03125 -1.109375 -0.578125 -1.6875q-0.546875 -0.578125 -1.328125 -0.578125q-0.84375 0 -1.390625 0.609375q-0.546875 0.609375 -0.53125 1.65625l3.828125 0zm9.730896 -4.0l2.390625 0l0 1.421875q0.46875 -0.734375 1.25 -1.1875q0.796875 -0.453125 1.765625 -0.453125q1.6875 0 2.859375 1.328125q1.171875 1.3125 1.171875 3.671875q0 2.421875 -1.1875 3.765625q-1.1875 1.34375 -2.859375 1.34375q-0.8125 0 -1.46875 -0.3125q-0.640625 -0.328125 -1.359375 -1.09375l0 4.875l-2.5625 0l0 -13.359375zm2.53125 4.671875q0 1.625 0.640625 2.40625q0.65625 0.78125 1.578125 0.78125q0.90625 0 1.484375 -0.71875q0.59375 -0.71875 0.59375 -2.34375q0 -1.515625 -0.609375 -2.25q-0.609375 -0.75 -1.515625 -0.75q-0.9375 0 -1.5625 0.734375q-0.609375 0.71875 -0.609375 2.140625zm13.53241 0.03125q0 -1.28125 0.625 -2.46875q0.625 -1.203125 1.78125 -1.828125q1.15625 -0.625 2.578125 -0.625q2.1875 0 3.59375 1.421875q1.40625 1.421875 1.40625 3.609375q0 2.1875 -1.421875 3.640625q-1.421875 1.4375 -3.5625 1.4375q-1.328125 0 -2.546875 -0.59375q-1.203125 -0.609375 -1.828125 -1.765625q-0.625 -1.171875 -0.625 -2.828125zm2.625 0.125q0 1.453125 0.671875 2.21875q0.6875 0.75 1.6875 0.75q1.0 0 1.671875 -0.75q0.6875 -0.765625 0.6875 -2.234375q0 -1.421875 -0.6875 -2.1875q-0.671875 -0.765625 -1.671875 -0.765625q-1.0 0 -1.6875 0.765625q-0.671875 0.765625 -0.671875 2.203125zm15.724121 4.84375l0 -1.453125q-0.53125 0.78125 -1.390625 1.234375q-0.859375 0.4375 -1.8125 0.4375q-0.96875 0 -1.75 -0.421875q-0.765625 -0.4375 -1.125 -1.203125q-0.34375 -0.78125 -0.34375 -2.140625l0 -6.125l2.5625 0l0 4.4375q0 2.046875 0.140625 2.515625q0.140625 0.453125 0.515625 0.71875q0.375 0.265625 0.953125 0.265625q0.65625 0 1.171875 -0.359375q0.515625 -0.359375 0.703125 -0.890625q0.203125 -0.53125 0.203125 -2.609375l0 -4.078125l2.546875 0l0 9.671875l-2.375 0zm9.474121 -9.671875l0 2.03125l-1.75 0l0 3.90625q0 1.1875 0.046875 1.390625q0.046875 0.1875 0.21875 0.3125q0.1875 0.125 0.4375 0.125q0.359375 0 1.03125 -0.25l0.21875 2.0q-0.890625 0.375 -2.015625 0.375q-0.703125 0 -1.265625 -0.234375q-0.546875 -0.234375 -0.8125 -0.59375q-0.25 -0.375 -0.34375 -1.0q-0.09375 -0.453125 -0.09375 -1.8125l0 -4.21875l-1.171875 0l0 -2.03125l1.171875 0l0 -1.921875l2.578125 -1.5l0 3.421875l1.75 0z" fill-rule="nonzero"/></g></svg>